<svg width="16.523682" height="16.135498" viewBox="0 0 16.5237 16.1355" fill="none" xmlns="http://www.w3.org/2000/svg" xmlns:xlink="http://www.w3.org/1999/xlink">
	<path id="Vector" d="M4.88 0.5C4.88 0.21 4.66 0 4.38 0C4.1 0 3.88 0.21 3.88 0.5L3.88 1.21Q3.52 1.24 3.23 1.28Q2.52 1.37 2.01 1.58Q1.54 1.78 1.18 2.09Q1.11 2.15 1.05 2.21Q0.99 2.28 0.93 2.34Q0.61 2.71 0.42 3.18Q0.21 3.68 0.11 4.4Q0.06 4.8 0.03 5.35C0.01 5.41 0 5.47 0 5.54C0 5.59 0 5.64 0.02 5.69Q0.01 5.8 0.01 5.92Q0 6.49 0 7.87L0 9.42Q0 10.8 0.01 11.37Q0.03 12.3 0.11 12.89Q0.21 13.61 0.42 14.11Q0.61 14.58 0.93 14.95Q0.99 15.01 1.05 15.07Q1.11 15.14 1.18 15.2Q1.54 15.51 2.01 15.71Q2.52 15.92 3.23 16.01Q3.83 16.09 4.76 16.12Q5.33 16.13 6.7 16.13L9.81 16.13L9.81 15.13L6.7 15.13Q5.34 15.13 4.78 15.12Q3.91 15.09 3.36 15.02Q2.78 14.94 2.39 14.78Q2.02 14.63 1.76 14.37Q1.49 14.1 1.34 13.73Q1.18 13.35 1.1 12.76Q1.03 12.22 1.01 11.34Q1 10.79 1 9.42L1 7.87Q1 6.61 1.01 6.04L3.5 6.04C3.78 6.04 4 5.82 4 5.54C4 5.26 3.78 5.04 3.5 5.04L1.05 5.04Q1.07 4.76 1.1 4.53Q1.18 3.94 1.34 3.56Q1.49 3.19 1.76 2.92Q2.02 2.66 2.39 2.51Q2.78 2.35 3.36 2.27Q3.91 2.2 4.78 2.17Q5.34 2.16 6.7 2.16L9.81 2.16Q11.18 2.16 11.73 2.17Q12.61 2.2 13.15 2.27Q13.73 2.35 14.12 2.51Q14.49 2.66 14.76 2.92Q15.02 3.19 15.17 3.56Q15.33 3.94 15.41 4.53Q15.44 4.76 15.46 5.04L7.29 5.04C7.01 5.04 6.79 5.26 6.79 5.54C6.79 5.82 7.01 6.04 7.29 6.04L15.51 6.04Q15.52 6.61 15.52 7.87L15.52 9.42Q15.52 10.79 15.5 11.34Q15.48 12.22 15.41 12.76Q15.33 13.35 15.17 13.73Q15.02 14.1 14.76 14.37Q14.46 14.66 14.03 14.82Q13.58 14.98 12.87 15.05C12.59 15.08 12.39 15.32 12.42 15.6C12.44 15.88 12.68 16.08 12.96 16.05Q13.81 15.97 14.37 15.76Q14.95 15.55 15.37 15.16Q15.42 15.12 15.46 15.07Q15.53 15.01 15.58 14.95Q15.9 14.58 16.1 14.11Q16.3 13.61 16.4 12.89Q16.48 12.3 16.5 11.37Q16.52 10.8 16.52 9.42L16.52 7.87Q16.52 6.49 16.5 5.92Q16.48 4.99 16.4 4.4Q16.3 3.68 16.1 3.18Q15.9 2.71 15.58 2.34Q15.53 2.28 15.46 2.21Q15.4 2.15 15.33 2.09Q14.97 1.78 14.5 1.58Q14 1.37 13.28 1.28Q13 1.24 12.64 1.21L12.64 0.5C12.64 0.21 12.42 0 12.14 0C11.86 0 11.64 0.21 11.64 0.5L11.64 1.17Q11.05 1.16 9.81 1.16L6.7 1.16Q5.46 1.16 4.88 1.17L4.88 0.5Z" fill="#F6F6F6" fill-opacity="1.000000" fill-rule="evenodd"/>
	<path id="Vector" d="M4.38 9.62C4.8 9.62 5.15 9.27 5.15 8.84C5.15 8.41 4.8 8.06 4.38 8.06C3.95 8.06 3.6 8.41 3.6 8.84C3.6 9.27 3.95 9.62 4.38 9.62ZM8.26 9.62C8.69 9.62 9.03 9.27 9.03 8.84C9.03 8.41 8.69 8.06 8.26 8.06C7.83 8.06 7.48 8.41 7.48 8.84C7.48 9.27 7.83 9.62 8.26 9.62ZM12.14 9.62C12.57 9.62 12.91 9.27 12.91 8.84C12.91 8.41 12.57 8.06 12.14 8.06C11.71 8.06 11.36 8.41 11.36 8.84C11.36 9.27 11.71 9.62 12.14 9.62ZM5.15 11.94C5.15 12.37 4.8 12.72 4.38 12.72C3.95 12.72 3.6 12.37 3.6 11.94C3.6 11.52 3.95 11.17 4.38 11.17C4.8 11.17 5.15 11.52 5.15 11.94ZM9.03 11.94C9.03 12.37 8.69 12.72 8.26 12.72C7.83 12.72 7.48 12.37 7.48 11.94C7.48 11.52 7.83 11.17 8.26 11.17C8.69 11.17 9.03 11.52 9.03 11.94ZM12.14 12.72C12.57 12.72 12.91 12.37 12.91 11.94C12.91 11.52 12.57 11.17 12.14 11.17C11.71 11.17 11.36 11.52 11.36 11.94C11.36 12.37 11.71 12.72 12.14 12.72Z" fill="#F6F6F6" fill-opacity="1.000000" fill-rule="evenodd"/>
</svg>
