<svg width="154.127197" height="79.999756" viewBox="0 0 154.127 79.9998" fill="none" xmlns="http://www.w3.org/2000/svg" xmlns:xlink="http://www.w3.org/1999/xlink">
	<desc>
			Created with Pixso.
	</desc>
	<defs/>
	<path id="Vector" d="M54.75 18.41L54.75 18.41C54.75 10.5 60.73 3.92 68.48 3.07L68.48 0L71.92 0.01L71.92 3.07C72.14 3.1 72.35 3.13 72.57 3.16L72.34 2.98L84 3.07C92.43 3.11 99.35 9.95 99.35 18.5C99.35 27.03 92.44 33.94 83.91 33.94C81.4 33.94 79.04 33.34 76.96 32.29C74.98 33.25 72.77 33.81 70.45 33.85L70.45 33.88L58.2 33.88L58.2 37L54.75 37L54.75 18.41ZM70.29 30.42L70.29 30.4C71.41 30.39 72.49 30.22 73.52 29.92C70.41 27.09 68.47 23.01 68.47 18.5L68.48 6.55C62.63 7.39 58.19 12.43 58.2 18.44L58.2 18.44L58.2 30.42L70.29 30.42ZM80.03 6.52C83.45 9.36 85.62 13.63 85.62 18.41C85.62 23.03 83.6 27.15 80.42 29.97C81.52 30.3 82.69 30.49 83.91 30.49C90.53 30.49 95.89 25.12 95.89 18.5C95.89 11.88 90.54 6.58 84.02 6.52L80.03 6.52L80.03 6.52ZM76.98 28.28C80.11 26.13 82.17 22.53 82.17 18.41C82.17 12.39 77.72 7.4 71.92 6.56L71.93 18.48C71.92 22.5 73.91 26.1 76.98 28.28L76.98 28.28Z" fill="#2B2A29" fill-opacity="1.000000" fill-rule="evenodd"/>
	<path id="Vector" d="M0.17 64.11L0.17 46.45L15.83 46.45L15.83 64.11L12.44 64.11L12.44 49.43L3.56 49.43L3.56 64.11L0.17 64.11ZM19.24 64.11L19.24 46.45L26.5 46.45C28.94 46.45 30.83 46.97 32.17 48.01C33.51 49.05 34.18 50.64 34.18 52.78C34.18 54.24 33.88 55.42 33.26 56.35C32.65 57.28 31.71 57.96 30.45 58.4C29.19 58.85 27.57 59.07 25.6 59.07L22.64 59.07L22.64 64.11L19.24 64.11ZM25.79 56.21C26.9 56.21 27.81 56.1 28.52 55.89C29.24 55.68 29.78 55.32 30.15 54.82C30.52 54.33 30.7 53.65 30.7 52.78C30.7 51.91 30.55 51.23 30.25 50.72C29.95 50.22 29.49 49.86 28.86 49.64C28.23 49.42 27.38 49.31 26.33 49.31L22.64 49.31L22.64 56.21L25.79 56.21L25.79 56.21ZM44.29 64.5C41.4 64.5 39.23 63.73 37.77 62.21C36.32 60.68 35.58 58.32 35.57 55.13C35.57 53.13 35.98 51.46 36.79 50.1C37.6 48.74 38.65 47.73 39.96 47.07C41.27 46.4 42.68 46.07 44.19 46.07C47.14 46.07 49.34 46.84 50.77 48.38C52.21 49.93 52.93 52.3 52.93 55.49C52.93 57.46 52.55 59.12 51.8 60.47C51.04 61.82 50.02 62.83 48.71 63.5C47.41 64.16 45.93 64.5 44.29 64.5L44.29 64.5ZM39.06 55.13C39.07 57.38 39.56 59 40.54 59.98C41.52 60.97 42.8 61.46 44.37 61.46C45.42 61.46 46.31 61.29 47.05 60.96C47.79 60.62 48.38 60.02 48.81 59.15C49.24 58.27 49.45 57.05 49.45 55.49C49.45 53.25 48.96 51.63 47.97 50.63C46.97 49.64 45.69 49.15 44.12 49.15C43.07 49.15 42.18 49.31 41.45 49.65C40.71 49.99 40.13 50.59 39.7 51.47C39.27 52.34 39.06 53.56 39.06 55.13Z" fill="#2B2A29" fill-opacity="1.000000" fill-rule="nonzero"/>
	<path id="Vector" d="M62.06 46.36L76.15 46.36L76.15 49.22L65.45 49.22L65.45 53.61L70.1 53.61C72.74 53.61 74.68 54.04 75.91 54.91C77.15 55.78 77.76 57.07 77.76 58.78C77.76 60.51 77.15 61.81 75.91 62.69C74.67 63.58 72.74 64.02 70.11 64.02L62.06 64.02L62.06 46.36L62.06 46.36ZM70.24 61.16C71.66 61.16 72.69 60.95 73.32 60.55C73.95 60.14 74.27 59.51 74.27 58.67C74.27 57.82 73.95 57.19 73.32 56.78C72.7 56.37 71.67 56.17 70.24 56.17L65.45 56.17L65.45 61.16L70.24 61.16ZM79.99 46.36L83.38 46.36L83.38 52.21L86.73 52.21C89.44 52.21 91.44 52.69 92.73 53.66C94.02 54.63 94.67 56.12 94.67 58.11C94.67 60.11 94.02 61.59 92.74 62.56C91.45 63.53 89.45 64.02 86.73 64.02L79.99 64.02L79.99 46.36L79.99 46.36ZM86.82 61.16C87.87 61.16 88.71 61.05 89.35 60.83C89.98 60.62 90.45 60.29 90.74 59.84C91.03 59.4 91.17 58.82 91.17 58.11C91.17 57.4 91.03 56.83 90.74 56.38C90.45 55.94 89.98 55.61 89.35 55.39C88.71 55.18 87.87 55.07 86.82 55.07L83.38 55.07L83.38 61.16L86.82 61.16ZM96.85 64.02L96.85 46.36L100.24 46.36L100.24 53.86L102.62 53.86C102.76 52.13 103.24 50.67 104.05 49.48C104.85 48.29 105.86 47.42 107.07 46.84C108.27 46.27 109.57 45.98 110.94 45.98C113.77 45.98 115.91 46.76 117.34 48.31C118.78 49.86 119.5 52.22 119.5 55.38C119.5 57.35 119.13 59.01 118.38 60.36C117.63 61.72 116.61 62.73 115.33 63.4C114.04 64.07 112.61 64.41 111.02 64.41C108.52 64.41 106.56 63.77 105.13 62.51C103.71 61.24 102.87 59.32 102.63 56.74L100.24 56.74L100.24 64.02L96.85 64.02L96.85 64.02ZM105.94 55.04C105.94 56.57 106.17 57.8 106.64 58.75C107.1 59.69 107.72 60.36 108.49 60.76C109.26 61.17 110.12 61.37 111.08 61.37C112.09 61.37 112.96 61.2 113.68 60.85C114.4 60.51 114.97 59.9 115.39 59.02C115.81 58.14 116.01 56.93 116.01 55.4C116.01 53.87 115.78 52.64 115.31 51.69C114.84 50.75 114.22 50.08 113.45 49.67C112.68 49.26 111.81 49.06 110.86 49.06C109.84 49.06 108.98 49.23 108.26 49.59C107.54 49.95 106.98 50.57 106.56 51.45C106.14 52.33 105.94 53.53 105.94 55.04L105.94 55.04ZM126.07 64.02L126.07 49.34L119.69 49.34L119.69 46.36L135.84 46.36L135.84 49.34L129.46 49.34L129.46 64.02L126.07 64.02ZM150.75 49.07L150.25 49.07L143.66 64.02L137.89 64.02L137.89 46.36L141.25 46.36L141.25 61.3L141.77 61.3L148.37 46.36L154.12 46.36L154.12 64.02L150.75 64.02L150.75 49.07Z" fill="#2B2A29" fill-opacity="1.000000" fill-rule="nonzero"/>
	<path id="Vector" d="M3.41 70.98L4.6 70.98L8.02 78.84L7.16 78.84L6.38 76.97L1.63 76.97L0.84 78.84L0 78.84L3.41 70.98ZM6.06 76.24L4.04 71.5L3.95 71.5L1.95 76.24L6.06 76.24L6.06 76.24ZM21.33 70.98L22.12 70.98L22.12 74.55L22.35 74.55L26.27 70.98L27.39 70.98L23.24 74.68L22.71 74.73L22.71 75.01L23.26 75.07L27.56 78.84L26.42 78.84L22.35 75.19L22.12 75.19L22.12 78.84L21.33 78.84L21.33 70.98ZM43.24 70.98L44.42 70.98L47.84 78.84L46.98 78.84L46.2 76.97L41.45 76.97L40.67 78.84L39.82 78.84L43.24 70.98ZM45.88 76.24L43.87 71.5L43.77 71.5L41.77 76.24L45.88 76.24L45.88 76.24ZM68.28 79.99L67.49 79.99L67.49 78.84L61.1 78.84L61.1 79.99L60.3 79.99L60.3 78.09L60.66 78.09C60.97 78.09 61.23 77.99 61.43 77.79C61.63 77.59 61.77 77.27 61.87 76.84C61.96 76.41 62.01 75.84 62.01 75.13L62.01 70.98L67.25 70.98L67.25 78.09L68.28 78.09L68.28 79.99L68.28 79.99ZM66.46 78.09L66.46 71.73L62.79 71.73L62.79 74.81C62.79 75.46 62.77 75.98 62.72 76.38C62.67 76.78 62.6 77.1 62.48 77.34C62.37 77.57 62.21 77.75 62 77.87L62 78.09L66.46 78.09L66.46 78.09ZM81.94 70.98L88.23 70.98L88.23 71.75L82.74 71.75L82.74 74.52L87.44 74.52L87.44 75.28L82.74 75.28L82.74 78.07L88.22 78.07L88.22 78.84L81.94 78.84L81.94 70.98ZM101.87 78.84L101.87 70.98L103.37 70.98L106.62 77.87L106.84 77.87L110.1 70.98L111.59 70.98L111.59 78.84L110.83 78.84L110.83 71.63L110.63 71.63L107.18 78.84L106.26 78.84L102.81 71.63L102.62 71.63L102.62 78.84L101.87 78.84L101.87 78.84ZM131.65 71.7L131.46 71.7L127.16 78.84L125.77 78.84L125.77 70.98L126.57 70.98L126.57 78.1L126.77 78.1L131.05 70.98L132.45 70.98L132.45 78.84L131.65 78.84L131.65 71.7ZM151.73 75.7L151.48 75.7L147.02 78.84L145.76 78.84L149.8 76.02L150.54 75.89L150.54 75.59L149.65 75.59C148.51 75.59 147.66 75.39 147.09 75C146.52 74.61 146.23 74.06 146.23 73.34C146.23 72.85 146.36 72.43 146.63 72.08C146.89 71.73 147.28 71.45 147.81 71.26C148.33 71.07 148.98 70.98 149.75 70.98L152.53 70.98L152.53 78.84L151.73 78.84L151.73 75.7ZM147.04 73.34C147.04 73.89 147.27 74.29 147.74 74.55C148.2 74.81 148.9 74.94 149.83 74.94L151.73 74.94L151.73 71.73L149.83 71.73C148.9 71.73 148.2 71.86 147.74 72.12C147.27 72.37 147.04 72.78 147.04 73.34Z" fill="#2B2A29" fill-opacity="1.000000" fill-rule="nonzero"/>
</svg>
