<svg width="290" height="38" viewBox="0 0 290 38" fill="none" xmlns="http://www.w3.org/2000/svg">
<path fill-rule="evenodd" clip-rule="evenodd" d="M38.6375 19.2471H38.6376C38.6342 11.3365 44.6141 4.75905 52.3632 3.90624L52.3634 0.829834L55.8074 0.841709L55.8088 3.90912C56.0261 3.93341 56.2426 3.96148 56.4572 3.99476L56.2262 3.81179L67.891 3.90193C76.3176 3.94942 83.2356 10.7899 83.2356 19.3387C83.2356 27.8644 76.3243 34.7758 67.7985 34.7758C65.2921 34.7758 62.9305 34.1795 60.8431 33.124C58.8692 34.0892 56.6623 34.6448 54.3372 34.6835V34.7114H42.0911V37.836H38.6375V19.2471ZM54.1784 31.2577L54.1786 31.2305C55.2978 31.2212 56.3827 31.0576 57.412 30.7591C54.3029 27.9283 52.3589 23.8483 52.3623 19.3353L52.3632 7.38819C46.5144 8.22229 42.075 13.2681 42.0917 19.2773H42.0911V31.2577H54.1784ZM63.9195 7.35886C67.335 10.1904 69.5108 14.4652 69.5108 19.2487C69.5108 23.8667 67.4914 27.9852 64.3068 30.8046C65.4101 31.1397 66.5815 31.3212 67.7983 31.3212C74.416 31.3212 79.7807 25.9566 79.7807 19.3389C79.7807 12.7121 74.4265 7.41104 67.9032 7.35706L63.9195 7.35904V7.35886ZM60.8702 29.1165C63.994 26.9623 66.0562 23.3613 66.0562 19.2487C66.0562 13.2208 61.605 8.23344 55.8104 7.39215L55.816 19.3101C55.8048 23.3375 57.7953 26.9323 60.87 29.1165H60.8702Z" fill="#2B2A29"/>
<path d="M97.413 21.9507V4.29123H113.071V21.9507H109.681V7.26959H100.803V21.9507H97.413ZM116.485 21.9507V4.29123H123.737C126.179 4.29123 128.07 4.80922 129.412 5.84896C130.754 6.88888 131.425 8.48241 131.425 10.6251C131.425 12.0772 131.119 13.2661 130.503 14.1923C129.887 15.1185 128.949 15.8013 127.689 16.245C126.43 16.6883 124.813 16.9119 122.843 16.9119H119.876V21.9507H116.485ZM123.031 14.0509C124.138 14.0509 125.048 13.9449 125.762 13.7329C126.477 13.521 127.018 13.1639 127.387 12.6655C127.756 12.1671 127.941 11.4883 127.941 10.6249C127.941 9.75353 127.791 9.06697 127.493 8.56464C127.195 8.06231 126.732 7.70103 126.1 7.48135C125.468 7.26149 124.624 7.15156 123.573 7.15156H119.876V14.0507L123.031 14.0509ZM141.527 22.3391C138.638 22.3391 136.468 21.5739 135.012 20.0475C133.556 18.5209 132.822 16.1624 132.814 12.9679C132.814 10.9743 133.219 9.29852 134.027 7.94068C134.835 6.58266 135.895 5.57027 137.202 4.90709C138.509 4.24373 139.917 3.91431 141.432 3.91431C144.384 3.91431 146.577 4.68345 148.014 6.22553C149.45 7.76778 150.168 10.1382 150.168 13.3328C150.168 15.3027 149.792 16.9627 149.038 18.3128C148.285 19.6627 147.256 20.6713 145.954 21.3384C144.651 22.0054 143.175 22.3391 141.527 22.3391ZM136.299 12.9679C136.307 15.2205 136.802 16.8371 137.783 17.8221C138.764 18.8072 140.039 19.3018 141.609 19.3018C142.661 19.3018 143.555 19.1332 144.293 18.7994C145.031 18.4659 145.616 17.8617 146.047 16.9866C146.479 16.1115 146.695 14.8947 146.695 13.333C146.695 11.0882 146.2 9.46746 145.208 8.4745C144.215 7.48171 142.931 6.98712 141.362 6.98712C140.31 6.98712 139.419 7.15606 138.685 7.49341C137.951 7.83093 137.371 8.43527 136.943 9.31039C136.515 10.1855 136.299 11.4059 136.299 12.9679Z" fill="#2B2A29"/>
<path d="M159.297 4.20127H173.389V7.06214H162.688V11.4536H167.338C169.983 11.4536 171.922 11.8854 173.154 12.7526C174.386 13.62 175.002 14.9111 175.002 16.6219C175.002 18.3486 174.386 19.6515 173.15 20.5344C171.914 21.4174 169.979 21.8609 167.35 21.8609H159.297L159.297 4.20127ZM167.48 19C168.9 19 169.928 18.796 170.56 18.3878C171.192 17.9797 171.506 17.3558 171.506 16.5159C171.506 15.6606 171.192 15.0287 170.564 14.6205C169.936 14.2124 168.908 14.0084 167.48 14.0084H162.688V19H167.48ZM177.227 4.20127H180.618V10.0526H183.974C186.681 10.0526 188.683 10.5353 189.974 11.5047C191.265 12.4739 191.909 13.9573 191.909 15.951C191.909 17.9524 191.265 19.4358 189.978 20.405C188.691 21.3744 186.689 21.8611 183.974 21.8611H177.227V4.20127ZM184.056 19C185.108 19 185.951 18.8901 186.587 18.6744C187.223 18.4585 187.686 18.1289 187.977 17.6854C188.267 17.2419 188.412 16.6652 188.412 15.9508C188.412 15.2443 188.267 14.6674 187.977 14.2241C187.686 13.7806 187.223 13.451 186.587 13.2351C185.952 13.0194 185.108 12.9134 184.056 12.9134H180.618V19H184.056ZM194.087 21.8609V4.20127H197.477V11.7008H199.855C200.005 9.96619 200.483 8.50634 201.288 7.32122C202.092 6.13611 203.097 5.25685 204.306 4.68417C205.514 4.11114 206.806 3.82471 208.179 3.82471C211.012 3.82471 213.147 4.59781 214.584 6.14798C216.02 7.69815 216.738 10.0565 216.738 13.2195C216.738 15.1897 216.365 16.8495 215.616 18.2035C214.866 19.5574 213.85 20.57 212.567 21.2411C211.283 21.9122 209.847 22.2497 208.261 22.2497C205.758 22.2497 203.796 21.6139 202.371 20.3464C200.946 19.0787 200.111 17.1598 199.867 14.5852H197.477V21.8611L194.087 21.8609ZM203.175 12.878C203.175 14.4085 203.411 15.6448 203.878 16.5864C204.345 17.5285 204.961 18.1994 205.73 18.6037C206.5 19.0078 207.363 19.212 208.32 19.212C209.333 19.212 210.2 19.0394 210.918 18.694C211.636 18.3486 212.205 17.7363 212.625 16.8574C213.045 15.9783 213.253 14.7736 213.253 13.243C213.253 11.7123 213.018 10.4763 212.547 9.53439C212.076 8.59252 211.456 7.91747 210.687 7.50942C209.917 7.10136 209.054 6.89716 208.097 6.89716C207.084 6.89716 206.221 7.07384 205.502 7.43079C204.784 7.78793 204.215 8.40793 203.8 9.29114C203.383 10.1742 203.175 11.371 203.175 12.878ZM223.307 21.8609V7.17963H216.926V4.20109H233.079V7.17963H226.698V21.8609H223.307ZM247.996 6.90903H247.489L240.896 21.8609H235.128V4.20127H238.495V19.1413H239.013L245.606 4.20127H251.363V21.8609H247.996V6.90903Z" fill="#2B2A29"/>
<path d="M100.654 28.8181H101.839L105.257 36.6825H104.397L103.616 34.8159H98.8662L98.085 36.6825H97.2356L100.654 28.8181ZM103.296 34.082L101.283 29.3424H101.189L99.1911 34.082H103.296ZM118.569 28.8181H119.365V32.3938H119.586L123.507 28.8181H124.629L120.477 32.5196L119.953 32.5719V32.8551L120.498 32.9075L124.797 36.6825H123.665L119.586 33.0334H119.365V36.6825H118.569V28.8181ZM140.478 28.8181H141.663L145.081 36.6825H144.222L143.44 34.8159H138.69L137.909 36.6825H137.06L140.478 28.8181ZM143.121 34.082L141.107 29.3424H141.013L139.015 34.082H143.121ZM165.523 37.836H164.726V36.6825H158.34V37.836H157.543V35.9274H157.9C158.214 35.9274 158.471 35.8279 158.669 35.6287C158.866 35.4296 159.013 35.1131 159.109 34.6815C159.205 34.2499 159.252 33.6801 159.252 32.9705V28.8181H164.495V35.9274H165.523L165.523 37.836ZM163.698 35.9274V29.5731H160.028V32.656C160.028 33.3026 160.006 33.8251 159.96 34.2236C159.915 34.6221 159.836 34.94 159.724 35.1777C159.612 35.4154 159.452 35.5919 159.242 35.7072V35.9274H163.698ZM179.18 28.8181H185.472V29.5941H179.977V32.3623H184.685V33.1171H179.977V35.9065H185.461V36.6825H179.18V28.8181ZM199.108 36.6825V28.8181H200.607L203.858 35.7072H204.078L207.339 28.8181H208.828V36.6825H208.073V29.4684H207.874L204.424 36.6825H203.502L200.052 29.4684H199.863V36.6825H199.108ZM228.892 29.5418H228.704L224.405 36.6825H223.01V28.8181H223.807V35.9378H224.006L228.295 28.8181H229.689V36.6825H228.892V29.5418ZM248.967 33.5368H248.715L244.259 36.6825H243.001L247.038 33.8618L247.782 33.736V33.4319H246.891C245.751 33.4319 244.897 33.236 244.327 32.8447C243.757 32.4532 243.472 31.8974 243.472 31.1776C243.472 30.6916 243.603 30.2722 243.866 29.9192C244.128 29.5662 244.523 29.2937 245.049 29.103C245.575 28.9126 246.223 28.8181 246.996 28.8181H249.774V36.6825H248.967V33.5368ZM244.28 31.1776C244.28 31.7297 244.512 32.1353 244.977 32.3938C245.442 32.6526 246.139 32.7819 247.069 32.7819H248.967V29.5733H247.069C246.139 29.5733 245.442 29.7006 244.977 29.9577C244.512 30.2147 244.28 30.6218 244.28 31.1776Z" fill="#2B2A29"/>
</svg>
