<svg width="60.000000" height="60.000000" viewBox="0 0 60 60" fill="none" xmlns="http://www.w3.org/2000/svg" xmlns:xlink="http://www.w3.org/1999/xlink">
	<desc>
			Created with Pixso.
	</desc>
	<defs>
		<clipPath id="clip1_572">
			<rect id="Linear / Like / Medal Ribbons Star" rx="4.500000" width="59.000000" height="59.000000" transform="translate(0.500000 0.500000)" fill="white" fill-opacity="0"/>
		</clipPath>
	</defs>
	<g clip-path="url(#clip1_572)">
		<path id="Vector" d="M32.38 17.99C32.65 18.48 32.78 18.72 32.99 18.88C33.2 19.04 33.46 19.1 33.99 19.22L34.47 19.32C36.31 19.74 37.23 19.95 37.45 20.66C37.67 21.36 37.04 22.1 35.78 23.57L35.46 23.95C35.1 24.37 34.92 24.57 34.84 24.83C34.76 25.09 34.79 25.37 34.84 25.93L34.89 26.44C35.08 28.4 35.18 29.38 34.6 29.82C34.03 30.25 33.17 29.85 31.44 29.06L30.99 28.85C30.5 28.63 30.26 28.51 30 28.51C29.73 28.51 29.49 28.63 29 28.85L28.55 29.06C26.82 29.85 25.96 30.25 25.39 29.82C24.81 29.38 24.91 28.4 25.1 26.44L25.15 25.93C25.2 25.37 25.23 25.09 25.15 24.83C25.07 24.57 24.89 24.37 24.53 23.95L24.21 23.57C22.95 22.1 22.32 21.36 22.54 20.66C22.76 19.95 23.68 19.74 25.52 19.32L26 19.22C26.53 19.1 26.79 19.04 27 18.88C27.21 18.72 27.34 18.48 27.61 17.99L27.86 17.55C28.81 15.85 29.28 15 30 15C30.71 15 31.18 15.85 32.13 17.55L32.38 17.99Z" stroke="#FF00A2" stroke-opacity="1.000000" stroke-width="3.000000"/>
		<path id="Vector" d="M30 40C20.33 40 12.5 32.16 12.5 22.5C12.5 12.83 20.33 5 30 5C39.66 5 47.5 12.83 47.5 22.5C47.5 32.16 39.66 40 30 40Z" stroke="#FF00A2" stroke-opacity="1.000000" stroke-width="3.000000"/>
		<path id="Vector" d="M30 40.16L20.57 49.93C19.22 51.33 18.54 52.02 17.97 52.27C16.67 52.82 15.22 52.35 14.54 51.15C14.23 50.62 14.14 49.67 13.95 47.77C13.85 46.7 13.8 46.16 13.63 45.71C13.27 44.7 12.52 43.92 11.55 43.55C11.11 43.38 10.6 43.33 9.56 43.22C7.72 43.03 6.81 42.93 6.3 42.62C5.14 41.91 4.68 40.41 5.22 39.06C5.45 38.47 6.12 37.77 7.48 36.37L13.63 30" stroke="#FF00A2" stroke-opacity="1.000000" stroke-width="3.000000"/>
		<path id="Vector" d="M30 40.16L39.42 49.93C40.77 51.33 41.45 52.02 42.02 52.27C43.32 52.82 44.77 52.35 45.45 51.15C45.76 50.62 45.85 49.67 46.04 47.77C46.14 46.7 46.2 46.16 46.36 45.71C46.72 44.7 47.47 43.92 48.44 43.55C48.88 43.38 49.39 43.33 50.43 43.22C52.27 43.03 53.18 42.93 53.69 42.62C54.85 41.91 55.31 40.41 54.77 39.06C54.54 38.47 53.87 37.77 52.51 36.37L46.36 30" stroke="#FF00A2" stroke-opacity="1.000000" stroke-width="3.000000"/>
	</g>
</svg>
