<svg width="60.000000" height="60.000000" viewBox="0 0 60 60" fill="none" xmlns="http://www.w3.org/2000/svg" xmlns:xlink="http://www.w3.org/1999/xlink">
	<desc>
			Created with Pixso.
	</desc>
	<defs>
		<clipPath id="clip1_566">
			<rect id="Linear / Sports / Meditation Round" rx="0.000000" width="59.000000" height="59.000000" transform="translate(0.500000 0.500000)" fill="white" fill-opacity="0"/>
		</clipPath>
	</defs>
	<g clip-path="url(#clip1_566)">
		<path id="Vector" d="M30 17.5C26.54 17.5 23.75 14.7 23.75 11.25C23.75 7.79 26.54 5 30 5C33.45 5 36.25 7.79 36.25 11.25C36.25 14.7 33.45 17.5 30 17.5Z" stroke="#FF00A2" stroke-opacity="1.000000" stroke-width="3.000000"/>
		<path id="Vector" d="M7.5 42.49L10.39 41.52C10.96 41.33 11.5 41.06 12 40.73L12.25 40.56C13.96 39.4 15 37.45 15 35.37C15 29.28 19.35 24.08 25.3 23.08L27.53 22.7C28.75 22.5 31.25 22.49 32.46 22.7L34.69 23.08C40.64 24.08 45 29.28 45 35.37C45 37.45 46.03 39.4 47.74 40.56L47.99 40.73C48.49 41.06 49.03 41.33 49.6 41.52L52.5 42.49" stroke="#FF00A2" stroke-opacity="1.000000" stroke-width="3.000000" stroke-linejoin="round" stroke-linecap="round"/>
		<path id="Vector" d="M23.75 40L21.43 43.08C21.06 43.57 20.88 43.81 20.67 44.03C20.16 44.57 19.54 44.98 18.84 45.25C18.56 45.35 18.27 45.43 17.67 45.58L13.19 46.7C11.31 47.17 10 48.85 10 50.78C10 53.11 11.88 55 14.21 55L15.92 55C20.19 55 24.34 53.61 27.76 51.05L32.5 47.5M36.25 40L38.06 42.42C38.92 43.56 39.35 44.13 39.91 44.56C40.07 44.68 40.25 44.8 40.43 44.91C41.04 45.26 41.73 45.43 43.12 45.78L46.8 46.7C48.68 47.17 50 48.85 50 50.78C50 53.11 48.11 55 45.78 55L43.44 55C42.03 55 41.33 55 40.63 54.96C38.57 54.84 36.54 54.47 34.57 53.86C33.9 53.65 33.25 53.4 31.93 52.91L27.5 51.25" stroke="#FF00A2" stroke-opacity="1.000000" stroke-width="3.000000" stroke-linejoin="round" stroke-linecap="round"/>
	</g>
</svg>
