<svg width="60.000000" height="60.000000" viewBox="0 0 60 60" fill="none" xmlns="http://www.w3.org/2000/svg" xmlns:xlink="http://www.w3.org/1999/xlink">
	<desc>
			Created with Pixso.
	</desc>
	<defs>
		<clipPath id="clip1_569">
			<rect id="Linear / School / Notebook" rx="0.000000" width="59.000000" height="59.000000" transform="translate(0.500000 0.500000)" fill="white" fill-opacity="0"/>
		</clipPath>
	</defs>
	<g clip-path="url(#clip1_569)">
		<path id="Vector" d="M5 12.49C5 9.74 7.21 7.51 9.95 7.68C12.39 7.83 15.28 8.13 17.5 8.71C20.12 9.41 23.24 10.88 25.7 12.18C28.35 13.59 31.58 13.5 34.18 12C36.33 10.76 38.98 9.39 41.25 8.71C43.86 7.93 47.38 7.64 50.2 7.54C52.88 7.45 55 9.65 55 12.33L55 40.35C55 43.13 52.73 45.38 49.96 45.55C47.53 45.7 44.69 46 42.5 46.58C39.79 47.29 36.56 48.84 34.06 50.17C31.53 51.52 28.46 51.52 25.93 50.17C23.43 48.84 20.2 47.29 17.5 46.58C15.3 46 12.46 45.7 10.03 45.55C7.26 45.38 5 43.13 5 40.35L5 12.49Z" stroke="#FF00A2" stroke-opacity="1.000000" stroke-width="3.000000"/>
		<path id="Vector" d="M30 14.63L30 52.49" stroke="#FF00A2" stroke-opacity="1.000000" stroke-width="3.000000"/>
		<path id="Vector" d="M12.5 22.5L22.5 25" stroke="#FF00A2" stroke-opacity="1.000000" stroke-width="3.000000" stroke-linecap="round"/>
		<path id="Vector" d="M47.5 22.5L37.5 25" stroke="#FF00A2" stroke-opacity="1.000000" stroke-width="3.000000" stroke-linecap="round"/>
		<path id="Vector" d="M12.5 32.5L22.5 35" stroke="#FF00A2" stroke-opacity="1.000000" stroke-width="3.000000" stroke-linecap="round"/>
		<path id="Vector" d="M47.5 32.5L37.5 35" stroke="#FF00A2" stroke-opacity="1.000000" stroke-width="3.000000" stroke-linecap="round"/>
	</g>
</svg>
