<svg width="24.000000" height="24.000000" viewBox="0 0 24 24" fill="none" xmlns="http://www.w3.org/2000/svg" xmlns:xlink="http://www.w3.org/1999/xlink">
	<defs>
		<clipPath id="clip1_513">
			<rect id="Broken / Astronomy / Star Fall" rx="0.000000" width="23.000000" height="23.000000" transform="translate(0.500000 0.500000)" fill="white" fill-opacity="0"/>
		</clipPath>
	</defs>
	<g clip-path="url(#clip1_513)">
		<path id="Vector" d="M11.18 4.22C11.7 2.8 11.96 2.09 12.51 2C13.05 1.92 13.52 2.51 14.46 3.69L14.7 4C14.96 4.33 15.1 4.5 15.28 4.6C15.46 4.69 15.67 4.71 16.08 4.73L16.46 4.76C17.93 4.85 18.66 4.89 18.92 5.4C19.17 5.92 18.78 6.55 17.99 7.83M17.66 10.13C18.04 11.6 18.24 12.34 17.85 12.74C17.46 13.14 16.75 12.95 15.33 12.55L14.96 12.45C14.56 12.34 14.35 12.28 14.15 12.31C13.96 12.35 13.78 12.46 13.43 12.7L13.11 12.91C11.89 13.73 11.27 14.14 10.78 13.87C10.28 13.61 10.24 12.85 10.14 11.33L10.12 10.94C10.09 10.51 10.08 10.29 9.99 10.1C9.89 9.92 9.73 9.78 9.41 9.5L9.11 9.25C7.97 8.29 7.39 7.8 7.48 7.24C7.56 6.67 8.24 6.4 9.6 5.86" stroke="#FFFFFF" stroke-opacity="1.000000" stroke-width="1.500000" stroke-linecap="round"/>
		<path id="Vector" d="M7.44 7.24C5.11 8.94 3.32 12.21 4.24 18C5.06 15.58 7.53 13.65 10.29 12.72" stroke="#FFFFFF" stroke-opacity="1.000000" stroke-width="1.500000" stroke-linecap="round"/>
		<path id="Star 7" d="M11.69 17.86C12.47 18.34 14 18.28 14 18.28C14 18.28 12.6 18.91 12.13 19.69C11.65 20.47 11.71 22 11.71 22C11.71 22 11.08 20.6 10.3 20.13C9.52 19.65 8 19.71 8 19.71C8 19.71 9.39 19.08 9.86 18.3C10.34 17.52 10.28 16 10.28 16C10.28 16 10.91 17.39 11.69 17.86Z" stroke="#FFFFFF" stroke-opacity="1.000000" stroke-width="1.000000" stroke-linejoin="round"/>
		<path id="Star 8" d="M17.53 16.24C17.01 16.56 16 16.52 16 16.52C16 16.52 16.92 16.94 17.24 17.46C17.56 17.98 17.52 19 17.52 19C17.52 19 17.94 18.07 18.46 17.75C18.98 17.43 20 17.47 20 17.47C20 17.47 19.07 17.05 18.75 16.53C18.43 16.01 18.47 15 18.47 15C18.47 15 18.05 15.92 17.53 16.24Z" stroke="#FFFFFF" stroke-opacity="1.000000" stroke-width="1.000000" stroke-linejoin="round"/>
	</g>
</svg>
