<svg width="60.000000" height="60.000000" viewBox="0 0 60 60" fill="none" xmlns="http://www.w3.org/2000/svg" xmlns:xlink="http://www.w3.org/1999/xlink">
	<desc>
			Created with Pixso.
	</desc>
	<defs>
		<clipPath id="clip1_575">
			<rect id="Linear / Business, Statistic / Graph New Up" rx="0.000000" width="59.000000" height="59.000000" transform="translate(0.500000 0.500000)" fill="white" fill-opacity="0"/>
		</clipPath>
	</defs>
	<g clip-path="url(#clip1_575)">
		<path id="Vector" d="M55 26.25L55 30C55 41.78 55 47.67 51.33 51.33C47.67 55 41.78 55 30 55C18.21 55 12.32 55 8.66 51.33C5 47.67 5 41.78 5 30C5 18.21 5 12.32 8.66 8.66C12.32 5 18.21 5 30 5L33.75 5" stroke="#FF00A2" stroke-opacity="1.000000" stroke-width="3.000000" stroke-linecap="round"/>
		<circle id="Vector" cx="47.500000" cy="12.500000" r="7.500000" stroke="#FF00A2" stroke-opacity="1.000000" stroke-width="3.000000"/>
		<path id="Vector" d="M17.5 35L23.23 29.26C24.2 28.29 25.79 28.29 26.76 29.26L30.73 33.23C31.7 34.2 33.29 34.2 34.26 33.23L42.5 25M36.25 25L42.5 25L42.5 31.25" stroke="#FF00A2" stroke-opacity="1.000000" stroke-width="3.000000" stroke-linecap="round"/>
	</g>
</svg>
