<svg width="95.759766" height="77.923706" viewBox="0 0 95.7598 77.9237" fill="none" xmlns="http://www.w3.org/2000/svg" xmlns:xlink="http://www.w3.org/1999/xlink">
	<desc>
			Created with Pixso.
	</desc>
	<defs/>
	<g opacity="0.100000">
		<path id="Vector" d="M10.56 77.04C7.68 78.48 5.43 78.16 3.83 76.08C1.91 73.36 2.23 71.04 4.79 69.12C8.95 66.08 12.72 62.88 16.08 59.52C19.6 56.16 22.31 51.68 24.24 46.08C25.2 43.2 25.35 40.64 24.72 38.4C24.24 36.16 22.31 34.88 18.95 34.56C13.52 33.91 8.95 32.24 5.27 29.52C1.75 26.8 0 22.72 0 17.28C0 12.8 1.68 8.8 5.04 5.28C8.39 1.76 13.12 0 19.2 0C25.12 0 30.31 2.4 34.79 7.19C39.27 12 41.52 18.4 41.52 26.4C41.52 34.08 40 41.12 36.96 47.52C33.91 53.76 30 59.36 25.2 64.32C20.56 69.28 15.68 73.51 10.56 77.04ZM64.79 77.04C61.91 78.48 59.68 78.16 58.08 76.08C56.16 73.36 56.48 71.04 59.04 69.12C63.2 66.08 66.96 62.88 70.31 59.52C73.83 56.16 76.56 51.68 78.48 46.08C79.43 43.2 79.6 40.64 78.96 38.4C78.48 36.16 76.56 34.88 73.2 34.56C67.75 33.91 63.2 32.24 59.52 29.52C56 26.8 54.24 22.72 54.24 17.28C54.24 12.8 55.91 8.8 59.27 5.28C62.64 1.76 67.35 0 73.43 0C79.35 0 84.56 2.4 89.04 7.19C93.52 12 95.75 18.4 95.75 26.4C95.75 34.08 94.24 41.12 91.2 47.52C88.16 53.76 84.24 59.36 79.43 64.32C74.79 69.28 69.91 73.51 64.79 77.04Z" fill="#FF00A2" fill-opacity="1.000000" fill-rule="evenodd"/>
	</g>
</svg>
