<svg width="95.760010" height="77.923584" viewBox="0 0 95.76 77.9236" fill="none" xmlns="http://www.w3.org/2000/svg" xmlns:xlink="http://www.w3.org/1999/xlink">
	<desc>
			Created with Pixso.
	</desc>
	<defs/>
	<g opacity="0.100000">
		<path id="Vector" d="M30.96 0.88C33.84 -0.56 36.08 -0.24 37.67 1.84C39.6 4.56 39.28 6.88 36.72 8.8C32.72 11.84 28.96 15.04 25.43 18.4C21.91 21.76 19.2 26.24 17.28 31.84C16.32 34.72 16.08 37.28 16.56 39.52C17.2 41.76 19.2 43.04 22.56 43.36C28.15 44 32.72 45.68 36.24 48.4C39.75 51.12 41.52 55.2 41.52 60.64C41.52 65.12 39.84 69.12 36.48 72.64C33.12 76.16 28.39 77.92 22.32 77.92C16.39 77.92 11.2 75.52 6.71 70.72C2.23 65.76 0 59.36 0 51.52C0 43.84 1.52 36.88 4.56 30.64C7.6 24.24 11.52 18.56 16.32 13.6C21.12 8.64 26 4.4 30.96 0.88ZM85.2 0.88C88.08 -0.56 90.32 -0.24 91.91 1.84C93.84 4.56 93.52 6.88 90.96 8.8C86.96 11.84 83.2 15.04 79.67 18.4C76.15 21.76 73.43 26.24 71.51 31.84C70.56 34.72 70.32 37.28 70.8 39.52C71.43 41.76 73.43 43.04 76.8 43.36C82.39 44 86.96 45.68 90.48 48.4C94 51.12 95.76 55.2 95.76 60.64C95.76 65.12 94.08 69.12 90.72 72.64C87.36 76.16 82.63 77.92 76.56 77.92C70.63 77.92 65.43 75.52 60.96 70.72C56.48 65.76 54.24 59.36 54.24 51.52C54.24 43.84 55.76 36.88 58.8 30.64C61.84 24.24 65.76 18.56 70.56 13.6C75.36 8.64 80.24 4.4 85.2 0.88Z" fill="#FF00A2" fill-opacity="1.000000" fill-rule="evenodd"/>
	</g>
</svg>
