<svg width="47.842896" height="58.257996" viewBox="0 0 47.8429 58.258" fill="none" xmlns="http://www.w3.org/2000/svg" xmlns:xlink="http://www.w3.org/1999/xlink">
	<defs/>
	<path id="Vector" d="M45.54 39.86C45.36 39.9 45.18 39.9 45.01 39.87C44.84 39.84 44.68 39.77 44.55 39.66C44.43 39.56 44.33 39.42 44.26 39.26C44.19 39.1 44.16 38.92 44.16 38.73L44.93 5.31L2.39 57.56C2.11 57.89 1.75 58.13 1.38 58.22C1 58.3 0.64 58.23 0.39 58.02C0.13 57.81 -0.01 57.48 0 57.09C0 56.71 0.16 56.3 0.43 55.97L42.98 3.72L10.41 11.24C10.22 11.29 10.04 11.29 9.87 11.26C9.7 11.23 9.54 11.15 9.41 11.05C9.29 10.95 9.19 10.81 9.12 10.65C9.05 10.49 9.02 10.31 9.02 10.12C9.03 9.93 9.07 9.73 9.14 9.54C9.22 9.35 9.33 9.16 9.46 9C9.6 8.83 9.75 8.69 9.93 8.58C10.1 8.46 10.29 8.38 10.47 8.34L46.46 0.03C46.64 -0.01 46.83 -0.02 47 0.02C47.17 0.05 47.32 0.12 47.45 0.23C47.58 0.33 47.68 0.47 47.74 0.63C47.81 0.79 47.84 0.97 47.84 1.16L46.99 38.08C46.99 38.27 46.95 38.47 46.87 38.66C46.8 38.85 46.69 39.04 46.55 39.2C46.42 39.37 46.26 39.51 46.09 39.62C45.92 39.73 45.73 39.81 45.54 39.86Z" fill="#FFFFFF" fill-opacity="1.000000" fill-rule="nonzero"/>
</svg>
